<?xml version="1.0" encoding="UTF-8"?>
<svg id="Layer_1" data-name="Layer 1" xmlns="http://www.w3.org/2000/svg" viewBox="0 0 585.61 501.84">
  <defs>
    <style>
      .cls-1 {
        fill: #ffc200;
      }
    </style>
  </defs>
  <path d="M585.13,0v501.84s-83.04,0-83.04,0l-.18-250.85-83.5.03v-83.75s83.5.04,83.5.04l-.02-83.62h-250.79s-.03,83.61-.03,83.61h-83.66s-.01-83.61-.01-83.61H.5c-.78-1.29-.03-2.26-.02-3.56L.49,0h584.64Z"/>
  <polygon class="cls-1" points="84.01 501.84 0 501.84 .11 418.28 83.83 418.28 84.01 501.84"/>
  <polygon class="cls-1" points="251.08 167.29 418.41 167.26 418.41 251.01 251.22 251.01 251.18 418.25 418.29 418.28 418.57 501.84 167.53 501.84 167.42 167.29 251.08 167.29"/>
  <rect class="cls-1" x="585.13" y="0" width=".48" height="501.84"/>
</svg>